<mxfile host="Electron" modified="2024-06-09T14:58:56.775Z" agent="Mozilla/5.0 (Windows NT 10.0; Win64; x64) AppleWebKit/537.36 (KHTML, like Gecko) draw.io/23.1.5 Chrome/120.0.6099.109 Electron/28.1.0 Safari/537.36" etag="XMCmGFGtsYhPiX_ycFxM" version="23.1.5" type="device">
  <diagram name="Page-1" id="-BykqvOlMU2EmxHjXX5o">
    <mxGraphModel dx="2976" dy="1706" grid="1" gridSize="10" guides="1" tooltips="1" connect="1" arrows="1" fold="1" page="1" pageScale="1" pageWidth="850" pageHeight="1100" math="0" shadow="0">
      <root>
        <mxCell id="0" />
        <mxCell id="1" parent="0" />
        <mxCell id="JUSjfNoJ9uRfse6r_P1f-27" value="&lt;font style=&quot;font-size: 14px;&quot;&gt;Payment gateway&lt;/font&gt;" style="html=1;align=center;verticalAlign=middle;dashed=0;whiteSpace=wrap;" parent="1" vertex="1">
          <mxGeometry x="-520" y="1160" width="160" height="70" as="geometry" />
        </mxCell>
        <mxCell id="JUSjfNoJ9uRfse6r_P1f-28" value="&lt;font style=&quot;font-size: 14px;&quot;&gt;Customer&amp;nbsp;&lt;/font&gt;" style="html=1;align=center;verticalAlign=middle;dashed=0;whiteSpace=wrap;" parent="1" vertex="1">
          <mxGeometry x="-840" y="840" width="160" height="70" as="geometry" />
        </mxCell>
        <mxCell id="JUSjfNoJ9uRfse6r_P1f-29" value="Inventory System=&quot;products in stock&quot;" style="html=1;align=center;verticalAlign=middle;dashed=0;whiteSpace=wrap;" parent="1" vertex="1">
          <mxGeometry x="-1700" y="865" width="160" height="70" as="geometry" />
        </mxCell>
        <mxCell id="JUSjfNoJ9uRfse6r_P1f-30" value="&lt;font style=&quot;font-size: 14px;&quot;&gt;Delivery partner&amp;nbsp;&lt;/font&gt;" style="html=1;align=center;verticalAlign=middle;dashed=0;whiteSpace=wrap;" parent="1" vertex="1">
          <mxGeometry x="-645" y="640" width="160" height="70" as="geometry" />
        </mxCell>
        <mxCell id="JUSjfNoJ9uRfse6r_P1f-33" value="&lt;font style=&quot;font-size: 14px;&quot;&gt;0.4&lt;/font&gt;" style="html=1;align=center;verticalAlign=top;rounded=1;absoluteArcSize=1;arcSize=10;dashed=0;whiteSpace=wrap;" parent="1" vertex="1">
          <mxGeometry x="-830" y="1080" width="140" height="80" as="geometry" />
        </mxCell>
        <mxCell id="JUSjfNoJ9uRfse6r_P1f-39" value="" style="html=1;dashed=0;whiteSpace=wrap;shape=mxgraph.dfd.dataStoreID;align=left;spacingLeft=3;points=[[0,0],[0.5,0],[1,0],[0,0.5],[1,0.5],[0,1],[0.5,1],[1,1]];" parent="1" vertex="1">
          <mxGeometry x="-490" y="330" width="100" height="30" as="geometry" />
        </mxCell>
        <mxCell id="JUSjfNoJ9uRfse6r_P1f-40" value="" style="html=1;dashed=0;whiteSpace=wrap;shape=mxgraph.dfd.dataStoreID;align=left;spacingLeft=3;points=[[0,0],[0.5,0],[1,0],[0,0.5],[1,0.5],[0,1],[0.5,1],[1,1]];" parent="1" vertex="1">
          <mxGeometry x="-190" y="1005" width="100" height="30" as="geometry" />
        </mxCell>
        <mxCell id="JUSjfNoJ9uRfse6r_P1f-41" value="" style="html=1;dashed=0;whiteSpace=wrap;shape=mxgraph.dfd.dataStoreID;align=left;spacingLeft=3;points=[[0,0],[0.5,0],[1,0],[0,0.5],[1,0.5],[0,1],[0.5,1],[1,1]];" parent="1" vertex="1">
          <mxGeometry x="-810" y="320" width="100" height="30" as="geometry" />
        </mxCell>
        <mxCell id="JUSjfNoJ9uRfse6r_P1f-42" value="" style="html=1;dashed=0;whiteSpace=wrap;shape=mxgraph.dfd.dataStoreID;align=left;spacingLeft=3;points=[[0,0],[0.5,0],[1,0],[0,0.5],[1,0.5],[0,1],[0.5,1],[1,1]];" parent="1" vertex="1">
          <mxGeometry x="-1310" y="680" width="100" height="30" as="geometry" />
        </mxCell>
        <mxCell id="JUSjfNoJ9uRfse6r_P1f-43" value="" style="html=1;dashed=0;whiteSpace=wrap;shape=mxgraph.dfd.dataStoreID;align=left;spacingLeft=3;points=[[0,0],[0.5,0],[1,0],[0,0.5],[1,0.5],[0,1],[0.5,1],[1,1]];" parent="1" vertex="1">
          <mxGeometry x="-1310" y="1080" width="100" height="30" as="geometry" />
        </mxCell>
        <mxCell id="JUSjfNoJ9uRfse6r_P1f-44" value="&lt;font style=&quot;font-size: 14px;&quot;&gt;Users&lt;/font&gt;" style="text;html=1;align=center;verticalAlign=middle;whiteSpace=wrap;rounded=0;" parent="1" vertex="1">
          <mxGeometry x="-750" y="320" width="60" height="30" as="geometry" />
        </mxCell>
        <mxCell id="JUSjfNoJ9uRfse6r_P1f-45" value="&lt;font style=&quot;font-size: 14px;&quot;&gt;Products&lt;/font&gt;" style="text;html=1;align=center;verticalAlign=middle;whiteSpace=wrap;rounded=0;" parent="1" vertex="1">
          <mxGeometry x="-450" y="330" width="60" height="30" as="geometry" />
        </mxCell>
        <mxCell id="JUSjfNoJ9uRfse6r_P1f-46" value="&lt;font style=&quot;font-size: 14px;&quot;&gt;Cart&lt;/font&gt;" style="text;html=1;align=center;verticalAlign=middle;whiteSpace=wrap;rounded=0;" parent="1" vertex="1">
          <mxGeometry x="-1290" y="1085" width="60" height="30" as="geometry" />
        </mxCell>
        <mxCell id="JUSjfNoJ9uRfse6r_P1f-47" value="&lt;font style=&quot;font-size: 14px;&quot;&gt;Orders&lt;/font&gt;" style="text;html=1;align=center;verticalAlign=middle;whiteSpace=wrap;rounded=0;" parent="1" vertex="1">
          <mxGeometry x="-1275" y="680" width="60" height="30" as="geometry" />
        </mxCell>
        <mxCell id="JUSjfNoJ9uRfse6r_P1f-48" value="&lt;font style=&quot;font-size: 14px;&quot;&gt;Payment&lt;/font&gt;" style="text;html=1;align=center;verticalAlign=middle;whiteSpace=wrap;rounded=0;" parent="1" vertex="1">
          <mxGeometry x="-160" y="1000" width="60" height="30" as="geometry" />
        </mxCell>
        <mxCell id="JUSjfNoJ9uRfse6r_P1f-49" value="" style="endArrow=classic;html=1;rounded=0;" parent="1" edge="1">
          <mxGeometry width="50" height="50" relative="1" as="geometry">
            <mxPoint x="-760" y="840" as="sourcePoint" />
            <mxPoint x="-760" y="590" as="targetPoint" />
          </mxGeometry>
        </mxCell>
        <mxCell id="JUSjfNoJ9uRfse6r_P1f-50" value="&lt;font style=&quot;font-size: 14px;&quot;&gt;User&amp;nbsp; Info&lt;/font&gt;" style="text;html=1;align=center;verticalAlign=middle;whiteSpace=wrap;rounded=0;rotation=-90;" parent="1" vertex="1">
          <mxGeometry x="-787.5" y="725" width="85" height="30" as="geometry" />
        </mxCell>
        <mxCell id="JUSjfNoJ9uRfse6r_P1f-51" value="" style="endArrow=classic;html=1;rounded=0;entryX=0.5;entryY=1;entryDx=0;entryDy=0;" parent="1" target="JUSjfNoJ9uRfse6r_P1f-41" edge="1">
          <mxGeometry width="50" height="50" relative="1" as="geometry">
            <mxPoint x="-760" y="520" as="sourcePoint" />
            <mxPoint x="-710" y="470" as="targetPoint" />
          </mxGeometry>
        </mxCell>
        <mxCell id="JUSjfNoJ9uRfse6r_P1f-52" value="&lt;font style=&quot;font-size: 14px;&quot;&gt;Store user info&lt;/font&gt;" style="text;html=1;align=center;verticalAlign=middle;whiteSpace=wrap;rounded=0;rotation=-90;" parent="1" vertex="1">
          <mxGeometry x="-800" y="410" width="110" height="30" as="geometry" />
        </mxCell>
        <mxCell id="JUSjfNoJ9uRfse6r_P1f-54" value="" style="endArrow=classic;html=1;rounded=0;entryX=0.5;entryY=0;entryDx=0;entryDy=0;" parent="1" target="JUSjfNoJ9uRfse6r_P1f-41" edge="1">
          <mxGeometry width="50" height="50" relative="1" as="geometry">
            <mxPoint x="-760" y="110" as="sourcePoint" />
            <mxPoint x="-710" y="60" as="targetPoint" />
          </mxGeometry>
        </mxCell>
        <mxCell id="JUSjfNoJ9uRfse6r_P1f-57" value="&lt;font style=&quot;font-size: 14px;&quot;&gt;Login info&lt;/font&gt;" style="text;html=1;align=center;verticalAlign=middle;whiteSpace=wrap;rounded=0;rotation=0;" parent="1" vertex="1">
          <mxGeometry x="-650" y="840" width="90" height="30" as="geometry" />
        </mxCell>
        <mxCell id="JUSjfNoJ9uRfse6r_P1f-58" value="" style="endArrow=classic;html=1;rounded=0;" parent="1" edge="1">
          <mxGeometry width="50" height="50" relative="1" as="geometry">
            <mxPoint x="-440" y="510" as="sourcePoint" />
            <mxPoint x="-440" y="360" as="targetPoint" />
          </mxGeometry>
        </mxCell>
        <mxCell id="JUSjfNoJ9uRfse6r_P1f-59" value="" style="endArrow=classic;html=1;rounded=0;entryX=0.449;entryY=1.11;entryDx=0;entryDy=0;exitX=1;exitY=0.75;exitDx=0;exitDy=0;entryPerimeter=0;" parent="1" source="JUSjfNoJ9uRfse6r_P1f-28" target="NOphazKbMymHL71VrkYl-18" edge="1">
          <mxGeometry width="50" height="50" relative="1" as="geometry">
            <mxPoint x="-680" y="880" as="sourcePoint" />
            <mxPoint x="-440" y="620" as="targetPoint" />
            <Array as="points">
              <mxPoint x="-440" y="893" />
            </Array>
          </mxGeometry>
        </mxCell>
        <mxCell id="JUSjfNoJ9uRfse6r_P1f-60" value="&lt;font style=&quot;font-size: 14px;&quot;&gt;Request Products&lt;/font&gt;" style="text;html=1;align=center;verticalAlign=middle;whiteSpace=wrap;rounded=0;" parent="1" vertex="1">
          <mxGeometry x="-650" y="870" width="130" height="30" as="geometry" />
        </mxCell>
        <mxCell id="JUSjfNoJ9uRfse6r_P1f-62" value="&lt;font style=&quot;font-size: 14px;&quot;&gt;Retrive products&lt;/font&gt;" style="text;html=1;align=center;verticalAlign=middle;whiteSpace=wrap;rounded=0;rotation=-91;" parent="1" vertex="1">
          <mxGeometry x="-485" y="430" width="115" height="30" as="geometry" />
        </mxCell>
        <mxCell id="JUSjfNoJ9uRfse6r_P1f-63" value="" style="endArrow=classic;html=1;rounded=0;" parent="1" target="JUSjfNoJ9uRfse6r_P1f-33" edge="1">
          <mxGeometry width="50" height="50" relative="1" as="geometry">
            <mxPoint x="-760" y="910" as="sourcePoint" />
            <mxPoint x="-710" y="860" as="targetPoint" />
          </mxGeometry>
        </mxCell>
        <mxCell id="JUSjfNoJ9uRfse6r_P1f-64" value="Add&amp;nbsp; Products" style="text;html=1;align=center;verticalAlign=middle;whiteSpace=wrap;rounded=0;rotation=-89;" parent="1" vertex="1">
          <mxGeometry x="-795" y="980" width="100" height="30" as="geometry" />
        </mxCell>
        <mxCell id="JUSjfNoJ9uRfse6r_P1f-66" value="&lt;font style=&quot;font-size: 14px;&quot;&gt;Store cart info&lt;/font&gt;" style="text;html=1;align=center;verticalAlign=middle;whiteSpace=wrap;rounded=0;" parent="1" vertex="1">
          <mxGeometry x="-1120" y="1070" width="110" height="30" as="geometry" />
        </mxCell>
        <mxCell id="JUSjfNoJ9uRfse6r_P1f-67" value="" style="endArrow=classic;html=1;rounded=0;entryX=1;entryY=0.5;entryDx=0;entryDy=0;exitX=0.013;exitY=0.853;exitDx=0;exitDy=0;exitPerimeter=0;" parent="1" source="JUSjfNoJ9uRfse6r_P1f-28" edge="1">
          <mxGeometry width="50" height="50" relative="1" as="geometry">
            <mxPoint x="-845" y="899.76" as="sourcePoint" />
            <mxPoint x="-1190" y="900" as="targetPoint" />
          </mxGeometry>
        </mxCell>
        <mxCell id="JUSjfNoJ9uRfse6r_P1f-68" value="Check out info" style="text;html=1;align=center;verticalAlign=middle;whiteSpace=wrap;rounded=0;" parent="1" vertex="1">
          <mxGeometry x="-1140" y="870" width="100" height="30" as="geometry" />
        </mxCell>
        <mxCell id="JUSjfNoJ9uRfse6r_P1f-72" value="" style="endArrow=classic;html=1;rounded=0;exitX=0;exitY=0.25;exitDx=0;exitDy=0;" parent="1" source="JUSjfNoJ9uRfse6r_P1f-33" edge="1">
          <mxGeometry width="50" height="50" relative="1" as="geometry">
            <mxPoint x="-480" y="1010" as="sourcePoint" />
            <mxPoint x="-1210" y="1100" as="targetPoint" />
          </mxGeometry>
        </mxCell>
        <mxCell id="JUSjfNoJ9uRfse6r_P1f-73" value="" style="endArrow=classic;html=1;rounded=0;exitX=0.38;exitY=1.116;exitDx=0;exitDy=0;exitPerimeter=0;" parent="1" source="NOphazKbMymHL71VrkYl-25" edge="1">
          <mxGeometry width="50" height="50" relative="1" as="geometry">
            <mxPoint x="-1260" y="950" as="sourcePoint" />
            <mxPoint x="-1263" y="1080" as="targetPoint" />
          </mxGeometry>
        </mxCell>
        <mxCell id="JUSjfNoJ9uRfse6r_P1f-74" value="&lt;font style=&quot;font-size: 14px;&quot;&gt;Retrive Cart info&lt;/font&gt;" style="text;html=1;align=center;verticalAlign=middle;whiteSpace=wrap;rounded=0;rotation=-90;" parent="1" vertex="1">
          <mxGeometry x="-1300" y="1000" width="110" height="30" as="geometry" />
        </mxCell>
        <mxCell id="JUSjfNoJ9uRfse6r_P1f-75" value="" style="endArrow=classic;html=1;rounded=0;" parent="1" edge="1">
          <mxGeometry width="50" height="50" relative="1" as="geometry">
            <mxPoint x="-1270" y="860" as="sourcePoint" />
            <mxPoint x="-1270" y="710" as="targetPoint" />
          </mxGeometry>
        </mxCell>
        <mxCell id="JUSjfNoJ9uRfse6r_P1f-76" value="&lt;font style=&quot;font-size: 14px;&quot;&gt;Store Order info&lt;/font&gt;" style="text;html=1;align=center;verticalAlign=middle;whiteSpace=wrap;rounded=0;rotation=-90;" parent="1" vertex="1">
          <mxGeometry x="-1290" y="780" width="90" height="30" as="geometry" />
        </mxCell>
        <mxCell id="JUSjfNoJ9uRfse6r_P1f-77" value="" style="endArrow=classic;html=1;rounded=0;entryX=0;entryY=0.5;entryDx=0;entryDy=0;" parent="1" edge="1">
          <mxGeometry width="50" height="50" relative="1" as="geometry">
            <mxPoint x="-720" y="910" as="sourcePoint" />
            <mxPoint x="-510" y="1020" as="targetPoint" />
            <Array as="points">
              <mxPoint x="-720" y="1020" />
            </Array>
          </mxGeometry>
        </mxCell>
        <mxCell id="JUSjfNoJ9uRfse6r_P1f-78" value="&lt;font style=&quot;font-size: 14px;&quot;&gt;Payment info&lt;/font&gt;" style="text;html=1;align=center;verticalAlign=middle;whiteSpace=wrap;rounded=0;" parent="1" vertex="1">
          <mxGeometry x="-680" y="990" width="90" height="30" as="geometry" />
        </mxCell>
        <mxCell id="JUSjfNoJ9uRfse6r_P1f-79" value="" style="endArrow=classic;html=1;rounded=0;exitX=0.5;exitY=1;exitDx=0;exitDy=0;entryX=0.5;entryY=0;entryDx=0;entryDy=0;" parent="1" target="JUSjfNoJ9uRfse6r_P1f-27" edge="1">
          <mxGeometry width="50" height="50" relative="1" as="geometry">
            <mxPoint x="-440" y="1040" as="sourcePoint" />
            <mxPoint x="-430" y="910" as="targetPoint" />
          </mxGeometry>
        </mxCell>
        <mxCell id="JUSjfNoJ9uRfse6r_P1f-80" value="Process Payment" style="text;html=1;align=center;verticalAlign=middle;whiteSpace=wrap;rounded=0;" parent="1" vertex="1">
          <mxGeometry x="-430" y="1100" width="100" height="30" as="geometry" />
        </mxCell>
        <mxCell id="JUSjfNoJ9uRfse6r_P1f-82" value="" style="endArrow=classic;html=1;rounded=0;exitX=1;exitY=0.5;exitDx=0;exitDy=0;entryX=-0.034;entryY=0.533;entryDx=0;entryDy=0;entryPerimeter=0;" parent="1" target="JUSjfNoJ9uRfse6r_P1f-40" edge="1">
          <mxGeometry width="50" height="50" relative="1" as="geometry">
            <mxPoint x="-370" y="1020" as="sourcePoint" />
            <mxPoint x="-190" y="1014.72" as="targetPoint" />
          </mxGeometry>
        </mxCell>
        <mxCell id="JUSjfNoJ9uRfse6r_P1f-84" value="&lt;font style=&quot;font-size: 14px;&quot;&gt;Store payment info&lt;/font&gt;" style="text;html=1;align=center;verticalAlign=middle;whiteSpace=wrap;rounded=0;" parent="1" vertex="1">
          <mxGeometry x="-340" y="990" width="130" height="30" as="geometry" />
        </mxCell>
        <mxCell id="JUSjfNoJ9uRfse6r_P1f-86" value="" style="endArrow=classic;html=1;rounded=0;entryX=1;entryY=0.5;entryDx=0;entryDy=0;exitX=0;exitY=0.5;exitDx=0;exitDy=0;" parent="1" source="NOphazKbMymHL71VrkYl-24" target="JUSjfNoJ9uRfse6r_P1f-29" edge="1">
          <mxGeometry width="50" height="50" relative="1" as="geometry">
            <mxPoint x="-1329.72" y="926.56" as="sourcePoint" />
            <mxPoint x="-1540" y="923.4399999999999" as="targetPoint" />
          </mxGeometry>
        </mxCell>
        <mxCell id="JUSjfNoJ9uRfse6r_P1f-87" value="Update inventory" style="text;html=1;align=center;verticalAlign=middle;whiteSpace=wrap;rounded=0;" parent="1" vertex="1">
          <mxGeometry x="-1490" y="870" width="110" height="30" as="geometry" />
        </mxCell>
        <mxCell id="NOphazKbMymHL71VrkYl-1" value="Request Order" style="text;html=1;align=center;verticalAlign=middle;whiteSpace=wrap;rounded=0;rotation=-89;" parent="1" vertex="1">
          <mxGeometry x="-1080" y="830" width="110" height="30" as="geometry" />
        </mxCell>
        <mxCell id="NOphazKbMymHL71VrkYl-2" value="" style="endArrow=classic;html=1;rounded=0;exitX=0;exitY=0.75;exitDx=0;exitDy=0;entryX=0.082;entryY=1.007;entryDx=0;entryDy=0;entryPerimeter=0;" parent="1" source="JUSjfNoJ9uRfse6r_P1f-28" target="NOphazKbMymHL71VrkYl-13" edge="1">
          <mxGeometry width="50" height="50" relative="1" as="geometry">
            <mxPoint x="-1130" y="770" as="sourcePoint" />
            <mxPoint x="-1020" y="740" as="targetPoint" />
            <Array as="points">
              <mxPoint x="-1040" y="890" />
            </Array>
          </mxGeometry>
        </mxCell>
        <mxCell id="NOphazKbMymHL71VrkYl-3" value="" style="endArrow=classic;html=1;rounded=0;" parent="1" edge="1">
          <mxGeometry width="50" height="50" relative="1" as="geometry">
            <mxPoint x="-1080" y="700" as="sourcePoint" />
            <mxPoint x="-1210" y="700" as="targetPoint" />
          </mxGeometry>
        </mxCell>
        <mxCell id="NOphazKbMymHL71VrkYl-7" value="&lt;font style=&quot;font-size: 14px;&quot;&gt;Add to cart&lt;/font&gt;" style="text;html=1;align=center;verticalAlign=middle;whiteSpace=wrap;rounded=0;" parent="1" vertex="1">
          <mxGeometry x="-800" y="1120" width="90" height="30" as="geometry" />
        </mxCell>
        <mxCell id="NOphazKbMymHL71VrkYl-8" value="" style="endArrow=none;html=1;rounded=0;exitX=0;exitY=0.5;exitDx=0;exitDy=0;entryX=1;entryY=0.5;entryDx=0;entryDy=0;" parent="1" source="JUSjfNoJ9uRfse6r_P1f-33" target="JUSjfNoJ9uRfse6r_P1f-33" edge="1">
          <mxGeometry width="50" height="50" relative="1" as="geometry">
            <mxPoint x="-720" y="960" as="sourcePoint" />
            <mxPoint x="-670" y="910" as="targetPoint" />
          </mxGeometry>
        </mxCell>
        <mxCell id="NOphazKbMymHL71VrkYl-11" value="&lt;font style=&quot;font-size: 14px;&quot;&gt;0.7&lt;/font&gt;" style="html=1;align=center;verticalAlign=top;rounded=1;absoluteArcSize=1;arcSize=10;dashed=0;whiteSpace=wrap;" parent="1" vertex="1">
          <mxGeometry x="-1080" y="655" width="140" height="80" as="geometry" />
        </mxCell>
        <mxCell id="NOphazKbMymHL71VrkYl-12" value="" style="endArrow=none;html=1;rounded=0;entryX=1;entryY=0.5;entryDx=0;entryDy=0;exitX=0;exitY=0.5;exitDx=0;exitDy=0;" parent="1" source="NOphazKbMymHL71VrkYl-11" target="NOphazKbMymHL71VrkYl-11" edge="1">
          <mxGeometry width="50" height="50" relative="1" as="geometry">
            <mxPoint x="-1090" y="680" as="sourcePoint" />
            <mxPoint x="-1040" y="630" as="targetPoint" />
          </mxGeometry>
        </mxCell>
        <mxCell id="NOphazKbMymHL71VrkYl-13" value="&lt;font style=&quot;font-size: 14px;&quot;&gt;View Orders&lt;/font&gt;" style="text;html=1;align=center;verticalAlign=middle;whiteSpace=wrap;rounded=0;" parent="1" vertex="1">
          <mxGeometry x="-1045" y="705" width="85" height="30" as="geometry" />
        </mxCell>
        <mxCell id="NOphazKbMymHL71VrkYl-14" value="" style="html=1;align=center;verticalAlign=top;rounded=1;absoluteArcSize=1;arcSize=10;dashed=0;whiteSpace=wrap;" parent="1" vertex="1">
          <mxGeometry x="-825" y="510" width="140" height="80" as="geometry" />
        </mxCell>
        <mxCell id="NOphazKbMymHL71VrkYl-15" value="&lt;font style=&quot;font-size: 14px;&quot;&gt;User registration&lt;/font&gt;" style="text;html=1;align=center;verticalAlign=middle;whiteSpace=wrap;rounded=0;" parent="1" vertex="1">
          <mxGeometry x="-807.5" y="560" width="105" height="30" as="geometry" />
        </mxCell>
        <mxCell id="NOphazKbMymHL71VrkYl-16" value="" style="endArrow=none;html=1;rounded=0;entryX=1;entryY=0.5;entryDx=0;entryDy=0;exitX=0;exitY=0.5;exitDx=0;exitDy=0;" parent="1" source="NOphazKbMymHL71VrkYl-14" target="NOphazKbMymHL71VrkYl-14" edge="1">
          <mxGeometry width="50" height="50" relative="1" as="geometry">
            <mxPoint x="-830" y="550" as="sourcePoint" />
            <mxPoint x="-770" y="500" as="targetPoint" />
          </mxGeometry>
        </mxCell>
        <mxCell id="NOphazKbMymHL71VrkYl-17" value="&lt;font style=&quot;font-size: 14px;&quot;&gt;0.3&lt;/font&gt;" style="html=1;align=center;verticalAlign=top;rounded=1;absoluteArcSize=1;arcSize=10;dashed=0;whiteSpace=wrap;" parent="1" vertex="1">
          <mxGeometry x="-510" y="510" width="140" height="80" as="geometry" />
        </mxCell>
        <mxCell id="NOphazKbMymHL71VrkYl-18" value="&lt;font style=&quot;font-size: 14px;&quot;&gt;Browse Products&lt;/font&gt;" style="text;html=1;align=center;verticalAlign=middle;whiteSpace=wrap;rounded=0;" parent="1" vertex="1">
          <mxGeometry x="-490" y="560" width="110" height="30" as="geometry" />
        </mxCell>
        <mxCell id="NOphazKbMymHL71VrkYl-19" value="" style="endArrow=none;html=1;rounded=0;entryX=1;entryY=0.5;entryDx=0;entryDy=0;" parent="1" target="NOphazKbMymHL71VrkYl-17" edge="1">
          <mxGeometry width="50" height="50" relative="1" as="geometry">
            <mxPoint x="-510" y="550" as="sourcePoint" />
            <mxPoint x="-460" y="500" as="targetPoint" />
          </mxGeometry>
        </mxCell>
        <mxCell id="NOphazKbMymHL71VrkYl-20" value="&lt;font style=&quot;font-size: 14px;&quot;&gt;0.6&lt;/font&gt;" style="html=1;align=center;verticalAlign=top;rounded=1;absoluteArcSize=1;arcSize=10;dashed=0;whiteSpace=wrap;" parent="1" vertex="1">
          <mxGeometry x="-510" y="980" width="140" height="80" as="geometry" />
        </mxCell>
        <mxCell id="NOphazKbMymHL71VrkYl-21" value="&lt;font style=&quot;font-size: 14px;&quot;&gt;Make payment&lt;/font&gt;" style="text;html=1;align=center;verticalAlign=middle;whiteSpace=wrap;rounded=0;" parent="1" vertex="1">
          <mxGeometry x="-500" y="1030" width="105" height="30" as="geometry" />
        </mxCell>
        <mxCell id="NOphazKbMymHL71VrkYl-23" value="" style="endArrow=none;html=1;rounded=0;exitX=0;exitY=0.5;exitDx=0;exitDy=0;entryX=1;entryY=0.5;entryDx=0;entryDy=0;" parent="1" source="NOphazKbMymHL71VrkYl-20" target="NOphazKbMymHL71VrkYl-20" edge="1">
          <mxGeometry width="50" height="50" relative="1" as="geometry">
            <mxPoint x="-320" y="940" as="sourcePoint" />
            <mxPoint x="-270" y="890" as="targetPoint" />
          </mxGeometry>
        </mxCell>
        <mxCell id="NOphazKbMymHL71VrkYl-24" value="&lt;font style=&quot;font-size: 14px;&quot;&gt;0.5&lt;/font&gt;" style="html=1;align=center;verticalAlign=top;rounded=1;absoluteArcSize=1;arcSize=10;dashed=0;whiteSpace=wrap;" parent="1" vertex="1">
          <mxGeometry x="-1330" y="860" width="140" height="80" as="geometry" />
        </mxCell>
        <mxCell id="NOphazKbMymHL71VrkYl-25" value="&lt;font style=&quot;font-size: 14px;&quot;&gt;Check out&lt;/font&gt;" style="text;html=1;align=center;verticalAlign=middle;whiteSpace=wrap;rounded=0;" parent="1" vertex="1">
          <mxGeometry x="-1290" y="910" width="70" height="30" as="geometry" />
        </mxCell>
        <mxCell id="NOphazKbMymHL71VrkYl-27" value="" style="endArrow=none;html=1;rounded=0;entryX=1;entryY=0.5;entryDx=0;entryDy=0;" parent="1" target="NOphazKbMymHL71VrkYl-24" edge="1">
          <mxGeometry width="50" height="50" relative="1" as="geometry">
            <mxPoint x="-1330" y="900" as="sourcePoint" />
            <mxPoint x="-1280" y="850" as="targetPoint" />
          </mxGeometry>
        </mxCell>
        <mxCell id="NOphazKbMymHL71VrkYl-28" value="&lt;font style=&quot;font-size: 14px;&quot;&gt;Retrive Order&lt;/font&gt;" style="text;html=1;align=center;verticalAlign=middle;whiteSpace=wrap;rounded=0;" parent="1" vertex="1">
          <mxGeometry x="-1190" y="670" width="90" height="30" as="geometry" />
        </mxCell>
        <mxCell id="NOphazKbMymHL71VrkYl-31" value="" style="endArrow=classic;html=1;rounded=0;entryX=1;entryY=0.5;entryDx=0;entryDy=0;" parent="1" edge="1">
          <mxGeometry width="50" height="50" relative="1" as="geometry">
            <mxPoint x="-600" y="640" as="sourcePoint" />
            <mxPoint x="-680" y="90" as="targetPoint" />
            <Array as="points">
              <mxPoint x="-600" y="90" />
            </Array>
          </mxGeometry>
        </mxCell>
        <mxCell id="NOphazKbMymHL71VrkYl-33" value="&lt;font style=&quot;font-size: 14px;&quot;&gt;Collect order&lt;/font&gt;" style="text;html=1;align=center;verticalAlign=middle;whiteSpace=wrap;rounded=0;rotation=-90;" parent="1" vertex="1">
          <mxGeometry x="-1057.5" y="590" width="105" height="30" as="geometry" />
        </mxCell>
        <mxCell id="NOphazKbMymHL71VrkYl-34" value="" style="html=1;align=center;verticalAlign=top;rounded=1;absoluteArcSize=1;arcSize=10;dashed=0;whiteSpace=wrap;" parent="1" vertex="1">
          <mxGeometry x="-825" y="40" width="140" height="80" as="geometry" />
        </mxCell>
        <mxCell id="NOphazKbMymHL71VrkYl-35" value="&lt;font style=&quot;font-size: 14px;&quot;&gt;User Login&lt;/font&gt;" style="text;html=1;align=center;verticalAlign=middle;whiteSpace=wrap;rounded=0;" parent="1" vertex="1">
          <mxGeometry x="-820" y="90" width="130" height="30" as="geometry" />
        </mxCell>
        <mxCell id="NOphazKbMymHL71VrkYl-36" value="" style="endArrow=none;html=1;rounded=0;entryX=1.004;entryY=0.485;entryDx=0;entryDy=0;entryPerimeter=0;" parent="1" target="NOphazKbMymHL71VrkYl-34" edge="1">
          <mxGeometry width="50" height="50" relative="1" as="geometry">
            <mxPoint x="-825" y="79.92" as="sourcePoint" />
            <mxPoint x="-690" y="79.92" as="targetPoint" />
          </mxGeometry>
        </mxCell>
        <mxCell id="NOphazKbMymHL71VrkYl-37" value="&lt;font style=&quot;font-size: 14px;&quot;&gt;Admin/cashier&lt;/font&gt;" style="rounded=0;whiteSpace=wrap;html=1;" parent="1" vertex="1">
          <mxGeometry x="-915" y="740" width="120" height="60" as="geometry" />
        </mxCell>
        <mxCell id="NOphazKbMymHL71VrkYl-38" value="&lt;font style=&quot;font-size: 14px;&quot;&gt;Login info&lt;/font&gt;" style="text;html=1;align=center;verticalAlign=middle;whiteSpace=wrap;rounded=0;rotation=-90;" parent="1" vertex="1">
          <mxGeometry x="-670" y="380" width="100" height="30" as="geometry" />
        </mxCell>
        <mxCell id="NOphazKbMymHL71VrkYl-40" value="" style="endArrow=classic;html=1;rounded=0;exitX=0;exitY=0.5;exitDx=0;exitDy=0;entryX=0.834;entryY=1.067;entryDx=0;entryDy=0;entryPerimeter=0;" parent="1" source="JUSjfNoJ9uRfse6r_P1f-30" target="NOphazKbMymHL71VrkYl-15" edge="1">
          <mxGeometry width="50" height="50" relative="1" as="geometry">
            <mxPoint x="-660" y="675" as="sourcePoint" />
            <mxPoint x="-710" y="590" as="targetPoint" />
            <Array as="points">
              <mxPoint x="-720" y="675" />
            </Array>
          </mxGeometry>
        </mxCell>
        <mxCell id="NOphazKbMymHL71VrkYl-43" value="&lt;font style=&quot;font-size: 14px;&quot;&gt;User info&lt;/font&gt;" style="text;html=1;align=center;verticalAlign=middle;whiteSpace=wrap;rounded=0;rotation=0;" parent="1" vertex="1">
          <mxGeometry x="-715" y="650" width="70" height="30" as="geometry" />
        </mxCell>
        <mxCell id="NOphazKbMymHL71VrkYl-44" value="" style="endArrow=classic;html=1;rounded=0;entryX=0.25;entryY=1;entryDx=0;entryDy=0;exitX=0.997;exitY=0.669;exitDx=0;exitDy=0;exitPerimeter=0;" parent="1" source="NOphazKbMymHL71VrkYl-37" target="NOphazKbMymHL71VrkYl-15" edge="1">
          <mxGeometry width="50" height="50" relative="1" as="geometry">
            <mxPoint x="-790" y="780" as="sourcePoint" />
            <mxPoint x="-730" y="590" as="targetPoint" />
            <Array as="points">
              <mxPoint x="-781" y="780" />
            </Array>
          </mxGeometry>
        </mxCell>
        <mxCell id="NOphazKbMymHL71VrkYl-45" value="&lt;span style=&quot;font-size: 14px;&quot;&gt;Admin/cashier info&lt;/span&gt;" style="text;html=1;align=center;verticalAlign=middle;whiteSpace=wrap;rounded=0;rotation=270;" parent="1" vertex="1">
          <mxGeometry x="-850" y="660" width="120" height="30" as="geometry" />
        </mxCell>
        <mxCell id="NOphazKbMymHL71VrkYl-48" value="" style="endArrow=classic;html=1;rounded=0;entryX=0.5;entryY=0;entryDx=0;entryDy=0;" parent="1" target="NOphazKbMymHL71VrkYl-34" edge="1">
          <mxGeometry width="50" height="50" relative="1" as="geometry">
            <mxPoint x="-680" y="870" as="sourcePoint" />
            <mxPoint x="-830" y="-40" as="targetPoint" />
            <Array as="points">
              <mxPoint x="-460" y="870" />
              <mxPoint x="-460" y="620" />
              <mxPoint x="-540" y="620" />
              <mxPoint x="-540" y="-40" />
              <mxPoint x="-755" y="-40" />
            </Array>
          </mxGeometry>
        </mxCell>
        <mxCell id="NOphazKbMymHL71VrkYl-50" value="&lt;font style=&quot;font-size: 14px;&quot;&gt;Delivery partner&amp;nbsp;&lt;/font&gt;" style="html=1;align=center;verticalAlign=middle;dashed=0;whiteSpace=wrap;" parent="1" vertex="1">
          <mxGeometry x="-1100" y="480" width="160" height="70" as="geometry" />
        </mxCell>
        <mxCell id="NOphazKbMymHL71VrkYl-55" value="&lt;font style=&quot;font-size: 14px;&quot;&gt;User info&lt;/font&gt;" style="text;html=1;align=center;verticalAlign=middle;whiteSpace=wrap;rounded=0;" parent="1" vertex="1">
          <mxGeometry x="-960" y="600" width="60" height="25" as="geometry" />
        </mxCell>
        <mxCell id="NOphazKbMymHL71VrkYl-56" value="" style="endArrow=classic;html=1;rounded=0;exitX=0.5;exitY=0;exitDx=0;exitDy=0;" parent="1" source="NOphazKbMymHL71VrkYl-50" edge="1">
          <mxGeometry width="50" height="50" relative="1" as="geometry">
            <mxPoint x="-1090" y="380" as="sourcePoint" />
            <mxPoint x="-830" y="80" as="targetPoint" />
            <Array as="points">
              <mxPoint x="-1020" y="80" />
            </Array>
          </mxGeometry>
        </mxCell>
        <mxCell id="NOphazKbMymHL71VrkYl-58" value="" style="endArrow=classic;html=1;rounded=0;exitX=0.432;exitY=0.03;exitDx=0;exitDy=0;exitPerimeter=0;entryX=0.5;entryY=1;entryDx=0;entryDy=0;" parent="1" source="NOphazKbMymHL71VrkYl-11" target="NOphazKbMymHL71VrkYl-50" edge="1">
          <mxGeometry width="50" height="50" relative="1" as="geometry">
            <mxPoint x="-1020" y="650" as="sourcePoint" />
            <mxPoint x="-1020" y="570" as="targetPoint" />
          </mxGeometry>
        </mxCell>
        <mxCell id="NOphazKbMymHL71VrkYl-60" value="" style="endArrow=classic;html=1;rounded=0;exitX=0.75;exitY=1;exitDx=0;exitDy=0;entryX=0.122;entryY=1.032;entryDx=0;entryDy=0;entryPerimeter=0;" parent="1" source="NOphazKbMymHL71VrkYl-50" target="NOphazKbMymHL71VrkYl-14" edge="1">
          <mxGeometry width="50" height="50" relative="1" as="geometry">
            <mxPoint x="-1000" y="570" as="sourcePoint" />
            <mxPoint x="-810" y="610" as="targetPoint" />
            <Array as="points">
              <mxPoint x="-980" y="620" />
              <mxPoint x="-808" y="620" />
            </Array>
          </mxGeometry>
        </mxCell>
        <mxCell id="NOphazKbMymHL71VrkYl-61" value="&lt;font style=&quot;font-size: 14px;&quot;&gt;Login info&lt;/font&gt;" style="text;html=1;align=center;verticalAlign=middle;whiteSpace=wrap;rounded=0;rotation=-90;" parent="1" vertex="1">
          <mxGeometry x="-1060" y="270" width="100" height="30" as="geometry" />
        </mxCell>
        <mxCell id="NOphazKbMymHL71VrkYl-62" value="" style="endArrow=classic;html=1;rounded=0;entryX=0.607;entryY=1.029;entryDx=0;entryDy=0;exitX=0;exitY=0.75;exitDx=0;exitDy=0;entryPerimeter=0;" parent="1" source="NOphazKbMymHL71VrkYl-37" target="NOphazKbMymHL71VrkYl-13" edge="1">
          <mxGeometry width="50" height="50" relative="1" as="geometry">
            <mxPoint x="-920" y="780" as="sourcePoint" />
            <mxPoint x="-870" y="730" as="targetPoint" />
            <Array as="points">
              <mxPoint x="-993" y="785" />
            </Array>
          </mxGeometry>
        </mxCell>
        <mxCell id="NOphazKbMymHL71VrkYl-63" value="&lt;font style=&quot;font-size: 14px;&quot;&gt;View order request&lt;/font&gt;" style="text;html=1;align=center;verticalAlign=middle;whiteSpace=wrap;rounded=0;" parent="1" vertex="1">
          <mxGeometry x="-990" y="755" width="70" height="30" as="geometry" />
        </mxCell>
        <mxCell id="NOphazKbMymHL71VrkYl-64" value="" style="endArrow=classic;html=1;rounded=0;exitX=0.542;exitY=0;exitDx=0;exitDy=0;entryX=0.157;entryY=1.025;entryDx=0;entryDy=0;entryPerimeter=0;exitPerimeter=0;fillColor=#FF0000;strokeColor=#FF0000;" parent="1" source="NOphazKbMymHL71VrkYl-37" target="NOphazKbMymHL71VrkYl-35" edge="1">
          <mxGeometry width="50" height="50" relative="1" as="geometry">
            <mxPoint x="-910" y="700" as="sourcePoint" />
            <mxPoint x="-850" y="120" as="targetPoint" />
            <Array as="points">
              <mxPoint x="-850" y="200" />
              <mxPoint x="-800" y="200" />
            </Array>
          </mxGeometry>
        </mxCell>
        <mxCell id="NOphazKbMymHL71VrkYl-65" value="&lt;font style=&quot;font-size: 14px;&quot;&gt;Login info&lt;/font&gt;" style="text;html=1;align=center;verticalAlign=middle;whiteSpace=wrap;rounded=0;rotation=-90;" parent="1" vertex="1">
          <mxGeometry x="-915" y="335" width="90" height="30" as="geometry" />
        </mxCell>
        <mxCell id="NOphazKbMymHL71VrkYl-68" value="&lt;font style=&quot;font-size: 14px;&quot;&gt;0.1&lt;/font&gt;" style="text;html=1;align=center;verticalAlign=middle;whiteSpace=wrap;rounded=0;" parent="1" vertex="1">
          <mxGeometry x="-795" y="520" width="60" height="30" as="geometry" />
        </mxCell>
        <mxCell id="NOphazKbMymHL71VrkYl-69" value="&lt;font style=&quot;font-size: 14px;&quot;&gt;0.2&lt;/font&gt;" style="text;html=1;align=center;verticalAlign=middle;whiteSpace=wrap;rounded=0;" parent="1" vertex="1">
          <mxGeometry x="-790" y="50" width="60" height="30" as="geometry" />
        </mxCell>
        <mxCell id="NOphazKbMymHL71VrkYl-70" value="&lt;font style=&quot;font-size: 24px;&quot;&gt;DFD&amp;nbsp; E-commerce Store&lt;/font&gt;" style="text;html=1;align=center;verticalAlign=middle;whiteSpace=wrap;rounded=0;" parent="1" vertex="1">
          <mxGeometry x="-920" y="-150" width="480" height="60" as="geometry" />
        </mxCell>
        <mxCell id="NOphazKbMymHL71VrkYl-71" value="" style="html=1;align=center;verticalAlign=top;rounded=1;absoluteArcSize=1;arcSize=10;dashed=0;whiteSpace=wrap;" parent="1" vertex="1">
          <mxGeometry x="-920" y="1770" width="140" height="100" as="geometry" />
        </mxCell>
        <mxCell id="NOphazKbMymHL71VrkYl-72" value="" style="endArrow=none;html=1;rounded=0;" parent="1" edge="1">
          <mxGeometry width="50" height="50" relative="1" as="geometry">
            <mxPoint x="-920" y="1810" as="sourcePoint" />
            <mxPoint x="-780" y="1810" as="targetPoint" />
          </mxGeometry>
        </mxCell>
        <mxCell id="NOphazKbMymHL71VrkYl-75" value="&lt;font style=&quot;font-size: 14px;&quot;&gt;E-&lt;font style=&quot;&quot;&gt;commerce&lt;/font&gt; store&lt;/font&gt;" style="text;html=1;align=center;verticalAlign=middle;whiteSpace=wrap;rounded=0;" parent="1" vertex="1">
          <mxGeometry x="-915" y="1820" width="125" height="30" as="geometry" />
        </mxCell>
        <mxCell id="NOphazKbMymHL71VrkYl-76" value="" style="rounded=0;whiteSpace=wrap;html=1;" parent="1" vertex="1">
          <mxGeometry x="-1240" y="1790" width="120" height="60" as="geometry" />
        </mxCell>
        <mxCell id="NOphazKbMymHL71VrkYl-77" value="" style="rounded=0;whiteSpace=wrap;html=1;" parent="1" vertex="1">
          <mxGeometry x="-590" y="1790" width="120" height="60" as="geometry" />
        </mxCell>
        <mxCell id="NOphazKbMymHL71VrkYl-78" value="&lt;font style=&quot;font-size: 14px;&quot;&gt;Admin chashier&lt;/font&gt;" style="text;html=1;align=center;verticalAlign=middle;whiteSpace=wrap;rounded=0;" parent="1" vertex="1">
          <mxGeometry x="-1240" y="1805" width="110" height="30" as="geometry" />
        </mxCell>
        <mxCell id="NOphazKbMymHL71VrkYl-79" value="&lt;font style=&quot;font-size: 14px;&quot;&gt;Customer&lt;/font&gt;" style="text;html=1;align=center;verticalAlign=middle;whiteSpace=wrap;rounded=0;" parent="1" vertex="1">
          <mxGeometry x="-580" y="1805" width="60" height="30" as="geometry" />
        </mxCell>
        <mxCell id="NOphazKbMymHL71VrkYl-80" value="" style="rounded=0;whiteSpace=wrap;html=1;" parent="1" vertex="1">
          <mxGeometry x="-920" y="1490" width="120" height="60" as="geometry" />
        </mxCell>
        <mxCell id="NOphazKbMymHL71VrkYl-81" value="&lt;font style=&quot;font-size: 14px;&quot;&gt;Dilivery Partner&lt;/font&gt;" style="text;html=1;align=center;verticalAlign=middle;whiteSpace=wrap;rounded=0;" parent="1" vertex="1">
          <mxGeometry x="-910" y="1510" width="90" height="30" as="geometry" />
        </mxCell>
        <mxCell id="NOphazKbMymHL71VrkYl-82" value="&lt;font style=&quot;font-size: 14px;&quot;&gt;0.0&lt;/font&gt;" style="text;html=1;align=center;verticalAlign=middle;whiteSpace=wrap;rounded=0;" parent="1" vertex="1">
          <mxGeometry x="-890" y="1770" width="60" height="30" as="geometry" />
        </mxCell>
        <mxCell id="NOphazKbMymHL71VrkYl-83" value="" style="endArrow=classic;html=1;rounded=0;entryX=0.75;entryY=0;entryDx=0;entryDy=0;" parent="1" target="NOphazKbMymHL71VrkYl-37" edge="1">
          <mxGeometry width="50" height="50" relative="1" as="geometry">
            <mxPoint x="-800" y="590" as="sourcePoint" />
            <mxPoint x="-750" y="540" as="targetPoint" />
            <Array as="points">
              <mxPoint x="-800" y="710" />
              <mxPoint x="-825" y="710" />
            </Array>
          </mxGeometry>
        </mxCell>
        <mxCell id="NOphazKbMymHL71VrkYl-84" value="&lt;font style=&quot;font-size: 14px;&quot;&gt;Customer iInfo&lt;/font&gt;" style="text;html=1;align=center;verticalAlign=middle;whiteSpace=wrap;rounded=0;rotation=-90;" parent="1" vertex="1">
          <mxGeometry x="-860" y="650" width="90" height="30" as="geometry" />
        </mxCell>
        <mxCell id="NOphazKbMymHL71VrkYl-86" value="" style="endArrow=classic;html=1;rounded=0;entryX=0.5;entryY=1;entryDx=0;entryDy=0;exitX=0.5;exitY=1;exitDx=0;exitDy=0;" parent="1" source="NOphazKbMymHL71VrkYl-71" target="NOphazKbMymHL71VrkYl-77" edge="1">
          <mxGeometry width="50" height="50" relative="1" as="geometry">
            <mxPoint x="-860" y="1870" as="sourcePoint" />
            <mxPoint x="-400" y="1960" as="targetPoint" />
            <Array as="points">
              <mxPoint x="-850" y="1960" />
              <mxPoint x="-530" y="1960" />
            </Array>
          </mxGeometry>
        </mxCell>
        <mxCell id="NOphazKbMymHL71VrkYl-87" value="&lt;font style=&quot;font-size: 14px;&quot;&gt;Payment details&lt;/font&gt;" style="text;html=1;align=center;verticalAlign=middle;whiteSpace=wrap;rounded=0;" parent="1" vertex="1">
          <mxGeometry x="-715" y="1920" width="60" height="30" as="geometry" />
        </mxCell>
        <mxCell id="NOphazKbMymHL71VrkYl-88" value="" style="endArrow=classic;html=1;rounded=0;entryX=0.999;entryY=0.609;entryDx=0;entryDy=0;entryPerimeter=0;" parent="1" target="NOphazKbMymHL71VrkYl-71" edge="1">
          <mxGeometry width="50" height="50" relative="1" as="geometry">
            <mxPoint x="-590" y="1830" as="sourcePoint" />
            <mxPoint x="-540" y="1780" as="targetPoint" />
          </mxGeometry>
        </mxCell>
        <mxCell id="NOphazKbMymHL71VrkYl-89" value="&lt;font style=&quot;font-size: 14px;&quot;&gt;User info&lt;/font&gt;" style="text;html=1;align=center;verticalAlign=middle;whiteSpace=wrap;rounded=0;" parent="1" vertex="1">
          <mxGeometry x="-710" y="1805" width="60" height="30" as="geometry" />
        </mxCell>
        <mxCell id="NOphazKbMymHL71VrkYl-91" value="" style="endArrow=classic;html=1;rounded=0;entryX=1;entryY=0;entryDx=0;entryDy=0;" parent="1" target="NOphazKbMymHL71VrkYl-82" edge="1">
          <mxGeometry width="50" height="50" relative="1" as="geometry">
            <mxPoint x="-520" y="1790" as="sourcePoint" />
            <mxPoint x="-920" y="1720" as="targetPoint" />
            <Array as="points">
              <mxPoint x="-520" y="1720" />
              <mxPoint x="-830" y="1720" />
            </Array>
          </mxGeometry>
        </mxCell>
        <mxCell id="NOphazKbMymHL71VrkYl-92" value="&lt;font style=&quot;font-size: 14px;&quot;&gt;Purchase /Order&amp;nbsp;&lt;/font&gt;" style="text;html=1;align=center;verticalAlign=middle;whiteSpace=wrap;rounded=0;" parent="1" vertex="1">
          <mxGeometry x="-717.5" y="1690" width="127.5" height="30" as="geometry" />
        </mxCell>
        <mxCell id="NOphazKbMymHL71VrkYl-93" value="" style="endArrow=classic;html=1;rounded=0;entryX=0.148;entryY=0.027;entryDx=0;entryDy=0;entryPerimeter=0;" parent="1" target="NOphazKbMymHL71VrkYl-82" edge="1">
          <mxGeometry width="50" height="50" relative="1" as="geometry">
            <mxPoint x="-1180" y="1790" as="sourcePoint" />
            <mxPoint x="-990" y="1785" as="targetPoint" />
            <Array as="points">
              <mxPoint x="-1180" y="1720" />
              <mxPoint x="-880" y="1720" />
            </Array>
          </mxGeometry>
        </mxCell>
        <mxCell id="NOphazKbMymHL71VrkYl-96" value="&lt;font style=&quot;font-size: 14px;&quot;&gt;View product details / Record Product&lt;/font&gt;" style="text;html=1;align=center;verticalAlign=middle;whiteSpace=wrap;rounded=0;" parent="1" vertex="1">
          <mxGeometry x="-1162.5" y="1690" width="275" height="30" as="geometry" />
        </mxCell>
        <mxCell id="NOphazKbMymHL71VrkYl-97" value="" style="endArrow=classic;html=1;rounded=0;exitX=-0.012;exitY=0.552;exitDx=0;exitDy=0;exitPerimeter=0;entryX=1.008;entryY=0.587;entryDx=0;entryDy=0;entryPerimeter=0;" parent="1" source="NOphazKbMymHL71VrkYl-71" target="NOphazKbMymHL71VrkYl-76" edge="1">
          <mxGeometry width="50" height="50" relative="1" as="geometry">
            <mxPoint x="-920" y="1860" as="sourcePoint" />
            <mxPoint x="-1120" y="1830" as="targetPoint" />
          </mxGeometry>
        </mxCell>
        <mxCell id="NOphazKbMymHL71VrkYl-98" value="&lt;font style=&quot;font-size: 14px;&quot;&gt;Customer info&lt;/font&gt;" style="text;html=1;align=center;verticalAlign=middle;whiteSpace=wrap;rounded=0;" parent="1" vertex="1">
          <mxGeometry x="-1080" y="1800" width="110" height="30" as="geometry" />
        </mxCell>
        <mxCell id="NOphazKbMymHL71VrkYl-99" value="" style="endArrow=classic;html=1;rounded=0;entryX=0.466;entryY=0.996;entryDx=0;entryDy=0;entryPerimeter=0;" parent="1" target="NOphazKbMymHL71VrkYl-76" edge="1">
          <mxGeometry width="50" height="50" relative="1" as="geometry">
            <mxPoint x="-890" y="1870" as="sourcePoint" />
            <mxPoint x="-840" y="1820" as="targetPoint" />
            <Array as="points">
              <mxPoint x="-890" y="1920" />
              <mxPoint x="-1184" y="1920" />
            </Array>
          </mxGeometry>
        </mxCell>
        <mxCell id="NOphazKbMymHL71VrkYl-100" value="&lt;font style=&quot;font-size: 14px;&quot;&gt;View Order Request&lt;/font&gt;" style="text;html=1;align=center;verticalAlign=middle;whiteSpace=wrap;rounded=0;" parent="1" vertex="1">
          <mxGeometry x="-1095" y="1890" width="125" height="30" as="geometry" />
        </mxCell>
        <mxCell id="NOphazKbMymHL71VrkYl-101" value="" style="endArrow=classic;html=1;rounded=0;" parent="1" edge="1">
          <mxGeometry width="50" height="50" relative="1" as="geometry">
            <mxPoint x="-860" y="1770" as="sourcePoint" />
            <mxPoint x="-860" y="1550" as="targetPoint" />
          </mxGeometry>
        </mxCell>
        <mxCell id="NOphazKbMymHL71VrkYl-102" value="&lt;font style=&quot;font-size: 14px;&quot;&gt;Collect Order&lt;/font&gt;" style="text;html=1;align=center;verticalAlign=middle;whiteSpace=wrap;rounded=0;rotation=-90;" parent="1" vertex="1">
          <mxGeometry x="-920" y="1612.5" width="85" height="30" as="geometry" />
        </mxCell>
        <mxCell id="NOphazKbMymHL71VrkYl-103" value="" style="endArrow=classic;html=1;rounded=0;entryX=0.75;entryY=0;entryDx=0;entryDy=0;exitX=0.625;exitY=1;exitDx=0;exitDy=0;exitPerimeter=0;" parent="1" source="NOphazKbMymHL71VrkYl-80" target="NOphazKbMymHL71VrkYl-82" edge="1">
          <mxGeometry width="50" height="50" relative="1" as="geometry">
            <mxPoint x="-840" y="1550" as="sourcePoint" />
            <mxPoint x="-790" y="1500" as="targetPoint" />
          </mxGeometry>
        </mxCell>
        <mxCell id="NOphazKbMymHL71VrkYl-104" value="" style="endArrow=classic;html=1;rounded=0;entryX=-0.011;entryY=0.362;entryDx=0;entryDy=0;exitX=1;exitY=0.25;exitDx=0;exitDy=0;entryPerimeter=0;" parent="1" source="NOphazKbMymHL71VrkYl-76" target="NOphazKbMymHL71VrkYl-71" edge="1">
          <mxGeometry width="50" height="50" relative="1" as="geometry">
            <mxPoint x="-1120" y="1840" as="sourcePoint" />
            <mxPoint x="-1070" y="1790" as="targetPoint" />
          </mxGeometry>
        </mxCell>
        <mxCell id="NOphazKbMymHL71VrkYl-105" value="&lt;font style=&quot;font-size: 14px;&quot;&gt;Admin/Cashier info&lt;/font&gt;" style="text;html=1;align=center;verticalAlign=middle;whiteSpace=wrap;rounded=0;" parent="1" vertex="1">
          <mxGeometry x="-1092.5" y="1770" width="145" height="30" as="geometry" />
        </mxCell>
        <mxCell id="NOphazKbMymHL71VrkYl-106" value="&lt;font style=&quot;font-size: 14px;&quot;&gt;Delivery Partner Info&lt;/font&gt;" style="text;html=1;align=center;verticalAlign=middle;whiteSpace=wrap;rounded=0;rotation=-90;" parent="1" vertex="1">
          <mxGeometry x="-880" y="1620" width="110" height="30" as="geometry" />
        </mxCell>
        <mxCell id="NOphazKbMymHL71VrkYl-107" value="&lt;font style=&quot;font-size: 24px;&quot;&gt;Context Diagram E-commerce store&amp;nbsp;&lt;/font&gt;" style="text;html=1;align=center;verticalAlign=middle;whiteSpace=wrap;rounded=0;" parent="1" vertex="1">
          <mxGeometry x="-1080" y="1410" width="450" height="30" as="geometry" />
        </mxCell>
        <mxCell id="O6wPMbDA_ujONMD2BUq6-3" value="&lt;font style=&quot;font-size: 14px;&quot;&gt;User log in&lt;/font&gt;" style="text;html=1;align=center;verticalAlign=middle;whiteSpace=wrap;rounded=0;rotation=-90;" parent="1" vertex="1">
          <mxGeometry x="-787.5" y="177.5" width="85" height="30" as="geometry" />
        </mxCell>
        <mxCell id="O6wPMbDA_ujONMD2BUq6-4" value="" style="endArrow=classic;html=1;rounded=0;entryX=0.365;entryY=1.113;entryDx=0;entryDy=0;entryPerimeter=0;exitX=0.573;exitY=0.985;exitDx=0;exitDy=0;exitPerimeter=0;" parent="1" source="NOphazKbMymHL71VrkYl-37" edge="1">
          <mxGeometry width="50" height="50" relative="1" as="geometry">
            <mxPoint x="-851.03" y="796.61" as="sourcePoint" />
            <mxPoint x="-1010.005" y="734.9999999999999" as="targetPoint" />
            <Array as="points">
              <mxPoint x="-846" y="830" />
              <mxPoint x="-1010" y="830" />
            </Array>
          </mxGeometry>
        </mxCell>
        <mxCell id="O6wPMbDA_ujONMD2BUq6-7" value="Add /remove products" style="text;html=1;align=center;verticalAlign=middle;whiteSpace=wrap;rounded=0;" parent="1" vertex="1">
          <mxGeometry x="-1000" y="800" width="140" height="30" as="geometry" />
        </mxCell>
      </root>
    </mxGraphModel>
  </diagram>
</mxfile>
